HIERARCHY
ROOT Hips
{
  OFFSET 0 89.5177 0.535
  CHANNELS 6 Xposition Yposition Zposition Zrotation Xrotation Yrotation
  JOINT Spine
  {
    OFFSET 12.0259 -0.162855 1.69034e-005
    CHANNELS 3 Zrotation Xrotation Yrotation
    JOINT Spine1
    {
      OFFSET 15.3169 -0.0121922 0
      CHANNELS 3 Zrotation Xrotation Yrotation
      JOINT Spine2
      {
        OFFSET 15.3176 -0.0121908 0
        CHANNELS 3 Zrotation Xrotation Yrotation
        JOINT Neck
        {
          OFFSET 19.9142 1.56338 0
          CHANNELS 3 Zrotation Xrotation Yrotation
          JOINT Head
          {
            OFFSET 6.92651 0 0
            CHANNELS 3 Zrotation Xrotation Yrotation
            End Site
            {
              OFFSET 20.7666 0 0
            }
          }
          JOINT LeftShoulder
          {
            OFFSET -6.20654 0.708824 7.28219
            CHANNELS 3 Zrotation Xrotation Yrotation
            JOINT LeftArm
            {
              OFFSET 14.108 0 -1.52588e-005
              CHANNELS 3 Zrotation Xrotation Yrotation
              JOINT LeftForeArm
              {
                OFFSET 28.5802 0 0
                CHANNELS 3 Zrotation Xrotation Yrotation
                JOINT LeftHand
                {
                  OFFSET 27.092 0 0
                  CHANNELS 3 Zrotation Xrotation Yrotation
                  End Site
                  {
                    OFFSET 9.55928 -0.186424 0.145352
                  }
                }
              }
            }
          }
          JOINT RightShoulder
          {
            OFFSET -6.20654 0.708866 -7.28218
            CHANNELS 3 Zrotation Xrotation Yrotation
            JOINT RightArm
            {
              OFFSET 14.108 0 1.52588e-005
              CHANNELS 3 Zrotation Xrotation Yrotation
              JOINT RightForeArm
              {
                OFFSET 28.5802 0 0
                CHANNELS 3 Zrotation Xrotation Yrotation
                JOINT RightHand
                {
                  OFFSET 27.092 0 0
                  CHANNELS 3 Zrotation Xrotation Yrotation
                  End Site
                  {
                    OFFSET 9.55929 -0.186417 -0.145354
                  }
                }
              }
            }
          }
        }
      }
    }
  }
  JOINT LeftUpLeg
  {
    OFFSET 0.005 -0.535 8.837
    CHANNELS 3 Zrotation Xrotation Yrotation
    JOINT LeftLeg
    {
      OFFSET 39.9035 0 0
      CHANNELS 3 Zrotation Xrotation Yrotation
      JOINT LeftFoot
      {
        OFFSET 39.6689 0 0
        CHANNELS 3 Zrotation Xrotation Yrotation
        JOINT LeftToe
        {
          OFFSET 10.1624 13.6296 0
          CHANNELS 3 Zrotation Xrotation Yrotation
          End Site
          {
            OFFSET 8.38147 0 0
          }
        }
      }
    }
  }
  JOINT RightUpLeg
  {
    OFFSET 0.005 -0.535 -8.837
    CHANNELS 3 Zrotation Xrotation Yrotation
    JOINT RightLeg
    {
      OFFSET 39.9035 0 0
      CHANNELS 3 Zrotation Xrotation Yrotation
      JOINT RightFoot
      {
        OFFSET 39.6689 0 0
        CHANNELS 3 Zrotation Xrotation Yrotation
        JOINT RightToe
        {
          OFFSET 10.1624 13.6296 0
          CHANNELS 3 Zrotation Xrotation Yrotation
          End Site
          {
            OFFSET 8.38147 0 0
          }
        }
      }
    }
  }
}
MOTION
Frames:	14
Frame Time:	0.0333333
516.782 86.1001 -125.207 132.244 -81.4827 41.521 -1.36007 -0.155699 -0.878806 -2.72237 -0.290014 -1.76088 -2.72237 -0.290013 -1.76089 -8.30768e-012 -9.0191e-006 -5.27751e-005 13.1425 2.92596 -4.18095 179.424 -10.9781 -93.0224 -16.8319 -55.9176 4.81448 -0.308781 0 -7.95139e-016 -45.3741 -22.7007 -27.3096 179.182 7.30105 96.4092 65.0226 70.6037 -73.6462 -2.0513 -7.95139e-016 7.95139e-016 -35.6124 12.2288 16.9602 -16.6809 6.14296 -178.179 -32.1696 0 7.95139e-016 21.3249 3.5533 -0.219504 90 2.98582e-021 1.59028e-015 -14.8854 -10.8887 -179.295 -30.5634 0 -3.97569e-016 21.4474 -0.815428 -2.02413 90 -7.20388e-021 -3.97569e-016 
516.738 86.1037 -125.199 131.789 -81.4021 41.0722 -1.35574 -0.150574 -0.873943 -2.71363 -0.279948 -1.75103 -2.71363 -0.279948 -1.75103 -8.30808e-012 -9.0191e-006 -5.27751e-005 12.961 2.81651 -4.12209 179.427 -11.0125 -92.9977 -16.9203 -55.7337 4.67597 -0.193871 9.54166e-015 1.19271e-015 -45.1026 -22.837 -27.2952 179.198 7.2143 96.3609 64.8105 70.5411 -73.2992 -1.95708 0 -7.95139e-016 -35.4216 12.2878 17.0328 -16.662 5.89473 -178.275 -32.1419 0 7.95139e-016 21.3085 3.43599 -0.186071 90 9.47879e-021 -1.59028e-015 -14.8834 -10.9191 -179.349 -30.5588 -7.95139e-016 1.98785e-016 21.4528 -0.777861 -1.98577 90 1.32229e-020 -7.95139e-016 
516.691 86.1065 -125.189 131.304 -81.298 40.6021 -1.35393 -0.154143 -0.871332 -2.71006 -0.287175 -1.74588 -2.71006 -0.287174 -1.74589 -8.30708e-012 -9.0191e-006 -5.27751e-005 12.6634 2.81454 -4.02724 179.412 -11.0036 -93.0767 -16.756 -55.862 4.7168 -0.0665808 3.18055e-015 3.97569e-016 -44.626 -22.9062 -27.0369 179.207 7.18336 96.3188 64.2271 70.4781 -72.7379 -1.84849 1.59028e-015 -0 -35.1402 12.33 17.1339 -16.6777 5.82732 -178.349 -32.1207 -3.18055e-015 7.95139e-016 21.2792 3.46232 -0.147883 90 -8.72049e-021 -0 -14.8983 -11.0078 -179.421 -30.5638 7.95139e-016 3.97569e-016 21.4645 -0.750022 -1.95069 90 -1.36258e-021 -3.97569e-016 
516.654 86.1091 -125.177 130.817 -81.1699 40.0998 -1.34609 -0.16152 -0.863519 -2.69764 -0.302205 -1.73042 -2.69764 -0.302205 -1.73043 -8.30728e-012 -9.0191e-006 -5.27751e-005 12.1829 2.86572 -3.87941 179.402 -10.9914 -93.1313 -16.6111 -55.8466 4.70728 -0.109801 -9.54166e-015 1.98785e-015 -43.4012 -23.3112 -26.5924 179.221 7.14084 96.2452 63.4802 70.3757 -71.9621 -1.91461 -1.59028e-015 1.59028e-015 -34.668 12.4287 17.0361 -16.7417 5.84564 -178.368 -32.1301 3.18055e-015 7.95139e-016 21.2515 3.57973 -0.115257 90 -1.13746e-020 -3.18055e-015 -14.9092 -11.1111 -179.459 -30.5442 0 3.97569e-016 21.4636 -0.73266 -1.91975 90 -1.3839e-020 1.19271e-015 
516.609 86.1114 -125.166 130.355 -81.0352 39.637 -1.34078 -0.168234 -0.858784 -2.68393 -0.315845 -1.72109 -2.68393 -0.315845 -1.7211 -8.30728e-012 -9.0191e-006 -5.27751e-005 11.6082 2.92601 -3.67027 179.39 -10.9411 -93.2084 -16.4125 -55.8843 4.73268 -0.12013 9.54166e-015 -0 -41.9026 -23.6475 -25.8292 179.227 7.13193 96.2055 63.3356 70.3311 -71.8249 -1.86981 1.59028e-015 -7.95139e-016 -34.6493 12.5886 17.1529 -16.7795 5.68496 -178.445 -32.1198 0 2.38542e-015 21.2285 3.55308 -0.0782688 90 -5.68728e-021 1.59028e-015 -14.9356 -11.1794 -179.517 -30.5407 0 -3.97569e-016 21.4717 -0.680967 -1.88117 90 -2.1896e-020 -7.95139e-016 
516.558 86.1131 -125.157 130.029 -80.9325 39.3356 -1.34325 -0.170259 -0.86138 -2.68891 -0.319798 -1.72634 -2.68891 -0.319798 -1.72635 -8.30768e-012 -9.0191e-006 -5.27751e-005 11.0994 2.95666 -3.36926 179.381 -10.8935 -93.2719 -16.2603 -55.6301 4.75834 -0.0285497 -6.36111e-015 -1.59028e-015 -41.1213 -23.8297 -25.352 179.24 7.06536 96.1535 62.5734 70.2096 -71.0336 -1.88499 1.59028e-015 -0 -34.6665 12.6022 17.1719 -16.8019 5.60051 -178.535 -32.0933 1.59028e-015 7.95139e-016 21.1983 3.55271 -0.0372412 90 -7.58303e-021 1.59028e-015 -14.9687 -11.1976 -179.596 -30.5593 -7.95139e-016 7.95139e-016 21.4926 -0.641488 -1.83761 90 -3.22279e-021 -1.19271e-015 
516.502 86.1145 -125.162 129.775 -80.8586 39.0847 -1.34399 -0.170068 -0.851754 -2.69017 -0.310367 -1.70698 -2.69017 -0.310367 -1.70699 -8.30768e-012 -9.0191e-006 -5.27751e-005 10.6293 2.90319 -3.09954 179.388 -10.8463 -93.2491 -16.1777 -55.2566 4.75998 -6.99837e-006 6.36111e-015 1.19271e-015 -40.7071 -23.9835 -25.1834 179.242 7.01487 96.1791 62.8028 70.1702 -71.207 -1.92853 0 -0 -34.6008 12.5885 17.1153 -16.8118 5.62876 -178.582 -32.0792 4.77083e-015 3.18055e-015 21.1875 3.63062 0.00471661 90 -2.16116e-020 -3.18055e-015 -14.9788 -11.2751 -179.661 -30.5603 -7.95139e-016 -0 21.504 -0.637699 -1.79303 90 5.1067e-021 3.97569e-016 
516.453 86.1154 -125.168 129.545 -80.775 38.8597 -1.34577 -0.169647 -0.848862 -2.70307 -0.312049 -1.70123 -2.70307 -0.312049 -1.70124 -8.30708e-012 -9.0191e-006 -5.27751e-005 10.255 2.81804 -2.89643 179.38 -10.8228 -93.2975 -15.9816 -55.1984 4.93134 -4.03375e-006 0 1.59028e-015 -40.2999 -24.0738 -24.9531 179.239 7.04168 96.1822 63.0923 70.2434 -71.5644 -1.8661 1.59028e-015 -7.95139e-016 -34.5434 12.532 17.0988 -16.8271 5.58535 -178.64 -32.0647 -4.77083e-015 -1.59028e-015 21.1777 3.64709 0.0425062 90 -2.40761e-020 -1.59028e-015 -14.9935 -11.331 -179.72 -30.5569 7.95139e-016 -0 21.5192 -0.632725 -1.75192 90 -9.70628e-020 -3.97569e-016 
516.399 86.1157 -125.183 129.221 -80.6806 38.5352 -1.34757 -0.169225 -0.84163 -2.71835 -0.322422 -1.68691 -2.71835 -0.322421 -1.68692 -8.30768e-012 -9.0191e-006 -5.27751e-005 9.91117 2.782 -2.72641 179.375 -10.7904 -93.3325 -15.8372 -55.3399 5.08126 -4.03375e-006 -1.27222e-014 -3.97569e-016 -40.1703 -24.0122 -24.7983 179.235 7.01698 96.2389 63.3232 70.2689 -71.8003 -1.84733 -1.59028e-015 -7.95139e-016 -34.5547 12.3843 17.0569 -16.8579 5.68878 -178.669 -32.0854 -3.18055e-015 -7.95139e-016 21.2332 3.78323 0.0814079 90 -1.55301e-018 -0 -14.9853 -11.3963 -179.775 -30.5535 -2.38542e-015 -1.59028e-015 21.5418 -0.617861 -1.70899 90 -1.9005e-020 -7.95139e-016 
516.357 86.1156 -125.212 128.882 -80.6659 38.2247 -1.34949 -0.169034 -0.838162 -2.71156 -0.317679 -1.68353 -2.71156 -0.317679 -1.68354 -8.30768e-012 -9.0191e-006 -5.27751e-005 9.67724 2.80952 -2.60738 179.374 -10.784 -93.3437 -15.7686 -55.2835 5.16774 -4.03375e-006 3.18055e-015 -3.97569e-016 -40.1935 -24.1011 -24.9203 179.223 7.04711 96.3084 63.2883 70.2201 -71.8426 -1.92067 3.18055e-015 -0 -34.5605 12.3132 16.9285 -16.746 5.34858 -178.793 -32.0153 -3.18055e-015 -7.95139e-016 21.1812 3.55925 0.106813 90 -1.82941e-020 -0 -14.9343 -11.373 -179.832 -30.5649 -7.95139e-016 1.98785e-016 21.577 -0.571535 -1.67407 90 -1.45026e-020 3.97569e-016 
516.308 86.1079 -125.239 128.503 -80.6576 37.8434 -1.3516 -0.169214 -0.835252 -2.70524 -0.329791 -1.67422 -2.70524 -0.329791 -1.67423 -8.30748e-012 -9.0191e-006 -5.27751e-005 9.52067 2.9241 -2.54646 179.368 -10.8039 -93.3694 -15.6878 -55.243 5.25343 -4.03375e-006 6.36111e-015 -3.97569e-016 -40.116 -24.0858 -24.8791 179.212 7.09692 96.3552 63.568 70.2444 -72.2343 -1.95524 -7.95139e-016 -1.59028e-015 -34.5036 12.3102 16.8791 -16.7119 5.49358 -178.797 -32.0512 -1.59028e-015 1.59028e-015 21.2092 3.69779 0.140933 90 4.17067e-021 -0 -14.8832 -11.3697 -179.869 -30.597 -3.97569e-016 3.97569e-016 21.618 -0.536644 -1.63305 90 -7.39346e-021 -0 
516.273 86.1066 -125.27 128.264 -80.666 37.6054 -1.35397 -0.169698 -0.83136 -2.71055 -0.331975 -1.66647 -2.71055 -0.331974 -1.66648 -8.30748e-012 -9.0191e-006 -5.27751e-005 9.49021 3.03638 -2.56599 179.367 -10.7977 -93.3747 -15.6054 -55.2867 5.31663 -4.03375e-006 6.36111e-015 -0 -40.0964 -23.9162 -24.7421 179.21 7.09789 96.3707 63.6065 70.2614 -72.3034 -1.96972 7.95139e-016 -0 -34.3877 12.2587 16.8252 -16.6395 5.42538 -178.834 -32.0415 0 -7.95139e-016 21.2333 3.64993 0.162882 90 6.82473e-021 -1.59028e-015 -14.8139 -11.3394 -179.885 -30.5883 -3.97569e-016 -0 21.6424 -0.509156 -1.60427 90 2.79624e-021 7.95139e-016 
516.233 86.1044 -125.312 128.135 -80.7025 37.4852 -1.35906 -0.170399 -0.823779 -2.7204 -0.319352 -1.65117 -2.7204 -0.319351 -1.65118 -8.30768e-012 -9.0191e-006 -5.27751e-005 9.5569 3.20207 -2.64255 179.373 -10.7862 -93.3442 -15.4793 -55.1065 5.44245 -4.03375e-006 6.36111e-015 -0 -40.1596 -23.9231 -24.7537 179.207 7.08716 96.4014 63.6614 70.2695 -72.332 -1.99519 -1.59028e-015 -3.18055e-015 -34.32 12.2136 16.843 -16.5501 5.38944 -178.876 -32.0239 0 -1.59028e-015 21.2632 3.61074 0.185972 90 2.61615e-020 1.59028e-015 -14.7516 -11.3312 -179.919 -30.5929 -3.97569e-016 -3.97569e-016 21.6713 -0.512747 -1.57108 90 3.38393e-020 -0 
516.2 86.1019 -125.347 128.14 -80.7404 37.5041 -1.36686 -0.171229 -0.822105 -2.73588 -0.314673 -1.64779 -2.73588 -0.314672 -1.6478 -8.30768e-012 -9.0191e-006 -5.27751e-005 9.69549 3.36571 -2.71792 179.371 -10.7913 -93.3544 -15.3047 -54.9432 5.62037 -4.03375e-006 -6.36111e-015 -0 -40.0564 -23.9247 -24.668 179.208 7.07076 96.4093 63.8839 70.2954 -72.5107 -1.95513 -7.95139e-016 -3.18055e-015 -34.0417 12.2279 16.8225 -16.4772 5.34868 -178.914 -32.0048 -4.77083e-015 -1.59028e-015 21.2915 3.56534 0.200706 90 -5.30812e-021 -0 -14.7103 -11.3155 -179.949 -30.6018 3.97569e-016 -3.97569e-016 21.7 -0.529259 -1.54615 90 -3.98109e-021 -0 
